# Blender v2.93.6 OBJ File: 'base.blend'
# www.blender.org
mtllib uneven_plane.mtl
o unevenPlane_Plane
v 0.800000 0.000000 -0.800000
v 1.000000 0.000000 -0.800000
v 1.000000 0.000000 -1.000000
v 0.800000 0.000000 -1.000000
v -0.800000 0.000000 -0.800000
v -0.400000 0.000000 -0.800000
v -0.400000 0.000000 -1.000000
v -0.800000 0.000000 -1.000000
v -0.800000 -0.000000 0.800000
v -0.400000 -0.000000 0.800000
v -0.400000 -0.000000 0.400000
v -0.800000 -0.000000 0.400000
v 0.800000 -0.000000 0.800000
v 1.000000 -0.000000 0.800000
v 1.000000 -0.000000 0.400000
v 0.800000 -0.000000 0.400000
v -0.400000 -0.000000 1.000000
v 0.800000 -0.000000 1.000000
v 1.000000 -0.000000 1.000000
v -1.000000 -0.000000 0.800000
v -1.000000 -0.000000 0.400000
v -1.000000 -0.000000 1.000000
v -0.800000 -0.000000 1.000000
v -1.000000 0.000000 -0.800000
v -1.000000 0.000000 -1.000000
vt 1.000000 0.750000
vt 0.750000 1.000000
vt 0.750000 0.750000
vt 0.500000 0.750000
vt 0.250000 1.000000
vt 0.250000 0.750000
vt 0.500000 0.250000
vt 0.250000 0.500000
vt 0.250000 0.250000
vt 1.000000 0.250000
vt 0.750000 0.500000
vt 0.750000 0.250000
vt 0.500000 0.500000
vt 0.750000 0.000000
vt 0.500000 0.000000
vt 1.000000 0.000000
vt 0.000000 0.500000
vt 0.000000 0.250000
vt 0.250000 0.000000
vt 0.000000 0.000000
vt 0.000000 1.000000
vt 0.000000 0.750000
vt 0.500000 1.000000
vt 1.000000 0.500000
vt 1.000000 1.000000
vn 0.0000 1.0000 0.0000
usemtl None
s 1
f 2/1/1 4/2/1 1/3/1
f 6/4/1 8/5/1 5/6/1
f 10/7/1 12/8/1 9/9/1
f 14/10/1 16/11/1 13/12/1
f 13/12/1 11/13/1 10/7/1
f 18/14/1 10/7/1 17/15/1
f 19/16/1 13/12/1 18/14/1
f 9/9/1 21/17/1 20/18/1
f 23/19/1 20/18/1 22/20/1
f 17/15/1 9/9/1 23/19/1
f 5/6/1 25/21/1 24/22/1
f 12/8/1 24/22/1 21/17/1
f 11/13/1 5/6/1 12/8/1
f 1/3/1 7/23/1 6/4/1
f 16/11/1 6/4/1 11/13/1
f 15/24/1 1/3/1 16/11/1
f 2/1/1 3/25/1 4/2/1
f 6/4/1 7/23/1 8/5/1
f 10/7/1 11/13/1 12/8/1
f 14/10/1 15/24/1 16/11/1
f 13/12/1 16/11/1 11/13/1
f 18/14/1 13/12/1 10/7/1
f 19/16/1 14/10/1 13/12/1
f 9/9/1 12/8/1 21/17/1
f 23/19/1 9/9/1 20/18/1
f 17/15/1 10/7/1 9/9/1
f 5/6/1 8/5/1 25/21/1
f 12/8/1 5/6/1 24/22/1
f 11/13/1 6/4/1 5/6/1
f 1/3/1 4/2/1 7/23/1
f 16/11/1 1/3/1 6/4/1
f 15/24/1 2/1/1 1/3/1
